<!DOCTYPE svg PUBLIC "-//W3C//DTD SVG 1.1//EN" "http://www.w3.org/Graphics/SVG/1.1/DTD/svg11.dtd">
<!-- Uploaded to: SVG Repo, www.svgrepo.com, Transformed by: SVG Repo Mixer Tools -->
<svg width="64px" height="64px" viewBox="0 0 24 24" fill="none" xmlns="http://www.w3.org/2000/svg" stroke="#4d057b">
<g id="SVGRepo_bgCarrier" stroke-width="0"/>
<g id="SVGRepo_tracerCarrier" stroke-linecap="round" stroke-linejoin="round" stroke="#CCCCCC" stroke-width="4.8"> <path d="M14.9991 19L9.83911 14C9.56672 13.7429 9.34974 13.433 9.20142 13.0891C9.0531 12.7452 8.97656 12.3745 8.97656 12C8.97656 11.6255 9.0531 11.2548 9.20142 10.9109C9.34974 10.567 9.56672 10.2571 9.83911 10L14.9991 5" stroke="#869ad3" stroke-width="1.224" stroke-linecap="round" stroke-linejoin="round"/> </g>
<g id="SVGRepo_iconCarrier"> <path d="M14.9991 19L9.83911 14C9.56672 13.7429 9.34974 13.433 9.20142 13.0891C9.0531 12.7452 8.97656 12.3745 8.97656 12C8.97656 11.6255 9.0531 11.2548 9.20142 10.9109C9.34974 10.567 9.56672 10.2571 9.83911 10L14.9991 5" stroke="#869ad3" stroke-width="2.4" stroke-linecap="round" stroke-linejoin="round"/> </g>
</svg>