<!DOCTYPE svg PUBLIC "-//W3C//DTD SVG 1.1//EN" "http://www.w3.org/Graphics/SVG/1.1/DTD/svg11.dtd">
<!-- Uploaded to: SVG Repo, www.svgrepo.com, Transformed by: SVG Repo Mixer Tools -->
<svg width="64px" height="64px" viewBox="0 0 24 24" fill="none" xmlns="http://www.w3.org/2000/svg" stroke="#4d057b">
<g id="SVGRepo_bgCarrier" stroke-width="0"/>
<g id="SVGRepo_tracerCarrier" stroke-linecap="round" stroke-linejoin="round" stroke="#CCCCCC" stroke-width="4.8"> <path d="M5 15L10 9.84985C10.2563 9.57616 10.566 9.35814 10.9101 9.20898C11.2541 9.05983 11.625 8.98291 12 8.98291C12.375 8.98291 12.7459 9.05983 13.0899 9.20898C13.434 9.35814 13.7437 9.57616 14 9.84985L19 15" stroke="#869ad3" stroke-width="1.2" stroke-linecap="round" stroke-linejoin="round"/> </g>
<g id="SVGRepo_iconCarrier"> <path d="M5 15L10 9.84985C10.2563 9.57616 10.566 9.35814 10.9101 9.20898C11.2541 9.05983 11.625 8.98291 12 8.98291C12.375 8.98291 12.7459 9.05983 13.0899 9.20898C13.434 9.35814 13.7437 9.57616 14 9.84985L19 15" stroke="#869ad3" stroke-width="2.4" stroke-linecap="round" stroke-linejoin="round"/> </g>
</svg>