<?xml version="1.0" encoding="UTF-8"?>
<svg id="proCol-ico" xmlns="http://www.w3.org/2000/svg" xmlns:xlink="http://www.w3.org/1999/xlink" viewBox="0 0 100 100">
  <defs>
    <style>

      .cls-v, .cls-b, .cls-w {
        stroke-width: 0px;
      }

      .cls-v {
        fill: rgb(18, 0, 36);
      }

      .cls-b {
        fill: rgb(18, 0, 36);
      }

      .cls-w {
        fill: #fff;
      }

      #dx, #sx, #static, #_75, #_50, #_25, #sleep, #c-letter {
        display: none;
      }
      
    </style>
  
  </defs>
  <g id="c-letter">
    <path class="cls-b" d="M85.93,50.49v.24c0,.44-.01.87-.03,1.3,0,.55-.03,1.09-.07,1.63-.01.23-.03.46-.04.68-.01.14-.02.27-.03.41-.03.37-.06.73-.1,1.09-.06.76-.15,1.51-.26,2.25-.1.73-.21,1.45-.34,2.17-.25,1.43-.56,2.83-.91,4.2-.18.69-.37,1.37-.57,2.04-.18.57-.36,1.14-.55,1.71-.03.1-.06.19-.1.28-.2.58-.41,1.16-.63,1.73-.02.07-.05.13-.08.2-.36.92-.75,1.82-1.15,2.7-.16.34-.32.67-.49,1.01-.29.6-.59,1.18-.9,1.76-.21.38-.42.76-.65,1.14-.28.48-.56.94-.85,1.4-.17.27-.34.55-.53.82-.35.53-.72,1.06-1.09,1.57-.61.84-1.25,1.65-1.91,2.42-.35.41-.71.81-1.07,1.2-.28.31-.57.61-.87.91-.35.36-.71.7-1.07,1.03-.22.21-.45.41-.67.61-.22.21-.45.4-.68.59-.46.38-.93.75-1.4,1.11-.24.18-.48.36-.72.52-.24.17-.48.34-.72.5-.23.15-.45.3-.68.44-1.38.88-2.81,1.63-4.29,2.25-.22.1-.45.19-.68.28-.25.1-.51.2-.77.29-1.81.65-3.67,1.11-5.59,1.36-.26.04-.51.07-.77.09-.55.06-1.1.1-1.65.12-.34.01-.68.02-1.02.02s-.67-.01-1-.02c-.89-.03-1.78-.11-2.65-.24-.2-.02-.41-.05-.61-.09-.23-.03-.46-.07-.68-.12-.33-.06-.65-.13-.97-.2s-.64-.15-.95-.24c-.32-.08-.64-.17-.95-.27-.36-.11-.72-.23-1.08-.36-.26-.09-.52-.19-.78-.29-.25-.09-.49-.19-.74-.3-1.57-.66-3.1-1.47-4.57-2.41-.16-.1-.31-.2-.47-.31-.24-.16-.48-.33-.72-.5-.48-.34-.96-.69-1.42-1.07-.21-.16-.42-.33-.63-.51-.79-.65-1.56-1.35-2.3-2.09-.3-.29-.59-.59-.87-.9-.28-.29-.55-.59-.81-.89-.17-.19-.34-.38-.5-.58-.47-.55-.93-1.11-1.37-1.7-.24-.3-.47-.62-.7-.94-.48-.68-.96-1.38-1.41-2.1-.17-.27-.34-.55-.51-.83-.34-.56-.67-1.13-.99-1.71l-.45-.87c-.16-.29-.31-.59-.45-.89l-.15-.3c-.14-.29-.28-.58-.41-.88-.11-.24-.22-.49-.32-.73-.13-.28-.25-.56-.37-.85-.35-.83-.68-1.68-.98-2.55-.17-.47-.33-.94-.48-1.43-.16-.48-.31-.96-.45-1.45h0c-.24-.83-.46-1.66-.66-2.51-.24-1.01-.45-2.04-.64-3.08-.04-.2-.07-.4-.11-.61-.04-.23-.08-.46-.11-.69-.05-.32-.1-.63-.14-.96l-.09-.72c-.04-.32-.08-.63-.11-.95-.04-.31-.06-.63-.09-.95-.01-.11-.03-.22-.03-.32h7.49c.66.36,1.33.7,2.01,1,1.2.57,2.43,1.06,3.7,1.49.32.11.65.21.98.31.3,1.76.69,3.47,1.15,5.1,2.99,10.42,9.22,17.88,16.57,18.93.03.01.06.01.09.01.26.03.51.06.76.09.29.02.58.03.87.03h.14c.14,0,.28,0,.42-.01.08,0,.16,0,.24,0,.17-.01.35-.02.52-.04.27-.02.55-.06.82-.11,3.67-.58,7.05-2.77,9.87-6.13,1.25-1.48,2.39-3.19,3.4-5.09.92-1.73,1.73-3.61,2.41-5.62.22-.67.44-1.35.64-2.05.43-1.53.8-3.12,1.09-4.77,1.29-.34,2.55-.76,3.77-1.24,2.93-1.15,5.68-2.66,8.17-4.5.88-.64,1.73-1.33,2.54-2.05Z"/>
    <path class="cls-b" d="M85.83,53.66c0,.09,0,.17-.01.26,0,.14-.02.28-.03.42.01-.22.03-.45.04-.68Z"/>
    <path class="cls-b" d="M85.76,54.75c-.01.14-.02.27-.03.4-.02.23-.04.46-.07.69.04-.36.07-.72.1-1.09Z"/>
    <path class="cls-b" d="M85.4,58.09c-.09.73-.2,1.45-.34,2.17.13-.72.24-1.44.34-2.17Z"/>
    <path class="cls-b" d="M84.62,38.01c.74,3.36,1.18,6.89,1.29,10.54-1.06.88-2.24,1.75-3.52,2.59-1.29.83-2.67,1.64-4.15,2.39-1.01.52-2.02.99-3.02,1.4-1.18.5-2.34.93-3.47,1.29.19-1.44.33-2.91.4-4.41.01-.14.01-.28.02-.42,3.03-1.62,6.94-5.58,10.8-10.98.56-.77,1.11-1.57,1.65-2.4Z"/>
    <path class="cls-b" d="M85.06,60.26c-.24,1.43-.55,2.83-.91,4.2.35-1.37.66-2.77.91-4.2Z"/>
    <path class="cls-b" d="M83.58,66.5c.2-.67.39-1.35.57-2.04-.17.69-.36,1.37-.57,2.04Z"/>
    <path class="cls-b" d="M84.02,35.54s.02.07.03.11c-.15.28-.29.56-.45.84-.56,1.04-1.17,2.04-1.83,3.02-1.99,2.91-4.41,5.52-7.16,7.73-.77.62-1.56,1.2-2.38,1.75,0-.39,0-.78-.02-1.17,0-.16,0-.31-.01-.47-.01-.3-.02-.61-.04-.91-.01-.24-.02-.48-.04-.72-.01-.17-.02-.35-.04-.52-.1-1.63-.29-3.21-.55-4.75-.31-1.94-.73-3.8-1.26-5.58-.98-3.37-2.3-6.43-3.89-9.05-2.04-3.38-4.53-6.04-7.3-7.74-2.22-1.35-4.61-2.09-7.11-2.09s-4.9.74-7.11,2.09c-2.82,1.72-5.35,4.45-7.41,7.91-1.53,2.56-2.8,5.52-3.76,8.78-.5,1.69-.91,3.46-1.21,5.29-.27,1.49-.47,3.03-.59,4.6h-5.43c-1.22-1.21-2.35-2.51-3.38-3.89s-1.96-2.84-2.77-4.36c-.13-.23-.24-.45-.36-.68.28-1.08.59-2.14.94-3.18l.18-.54c.22-.63.45-1.26.69-1.87.13-.34.27-.68.41-1.02.04-.1.08-.19.12-.29.05-.11.1-.23.15-.34.19-.45.39-.9.6-1.34.05-.1.09-.19.14-.29.16-.34.33-.68.51-1.02.11-.23.23-.46.35-.69.55-1.05,1.13-2.06,1.75-3.04,0-.02.02-.04.04-.06.15-.25.32-.49.49-.74.1-.17.21-.34.33-.51.1-.15.21-.3.31-.45.28-.4.57-.8.87-1.19.07-.1.14-.19.22-.29.7-.91,1.43-1.78,2.19-2.61.2-.23.4-.45.61-.66.21-.22.42-.43.63-.64.01,0,.03-.03.04-.03.36-.36.72-.71,1.09-1.04l.05-.05c.35-.32.7-.62,1.05-.92.19-.16.37-.31.56-.45.19-.16.37-.3.56-.44.19-.15.37-.29.56-.42.19-.15.38-.28.58-.41.15-.12.31-.22.47-.33.47-.32.94-.62,1.43-.91.23-.15.47-.28.71-.42h0c.21-.12.43-.24.64-.35.03-.02.07-.03.1-.05.25-.13.49-.25.74-.38.25-.12.5-.23.75-.35.24-.11.49-.22.74-.33h.01c.21-.09.42-.17.63-.26.04-.01.09-.03.14-.05.25-.1.51-.2.77-.29.11-.04.22-.08.34-.12.14-.05.29-.09.43-.14.26-.09.53-.17.79-.24.78-.23,1.57-.42,2.37-.57.34-.06.67-.12,1.01-.17.72-.11,1.46-.19,2.2-.24.18,0,.36-.02.53-.03.41-.02.81-.03,1.22-.03.61,0,1.21.02,1.8.06.64.04,1.27.11,1.9.2.21.03.42.06.62.1.48.07.96.17,1.43.28.14.02.27.06.41.09,2.22.53,4.36,1.34,6.41,2.41.37.19.73.39,1.09.6.36.2.71.41,1.06.63.18.12.37.24.55.36.3.2.6.4.9.62.24.17.48.34.72.52.38.28.75.57,1.11.87.27.22.55.45.81.69.33.28.65.57.96.87.31.28.61.58.91.88l.03.03c.37.36.72.73,1.06,1.11.06.06.11.12.17.19.33.36.66.74.98,1.13.02.02.04.04.05.06.28.33.56.67.82,1.02.17.2.32.41.48.62.23.31.46.62.68.94.06.08.11.15.16.23.14.19.27.39.4.58.07.09.13.19.18.28.09.12.18.25.25.38.09.12.17.25.24.37.17.27.34.55.51.83s.34.56.5.84l.27.48s.03.04.04.07c.17.3.33.6.48.91.37.68.72,1.38,1.04,2.08.06.14.12.28.19.42.22.47.43.95.62,1.43.03.08.07.16.1.24.04.1.08.19.11.28.32.77.62,1.56.89,2.37.11.33.23.66.33.99.28.83.53,1.68.76,2.54Z"/>
    <use transform="translate(82.98 66.37) scale(.24)" xlink:href="#image-6"/>
    <use transform="translate(82.98 66.37) scale(.24)" xlink:href="#image-6"/>
    <use transform="translate(82.26 68.29) scale(.24)" xlink:href="#image-2"/>
    <use transform="translate(82.26 68.29) scale(.24)" xlink:href="#image-2"/>
    <use transform="translate(78.18 76.93) scale(.24)" xlink:href="#image-4"/>
    <use transform="translate(78.18 76.93) scale(.24)" xlink:href="#image-4"/>
    <use transform="translate(76.5 79.09) scale(.24)" xlink:href="#image-7"/>
    <use transform="translate(76.5 79.09) scale(.24)" xlink:href="#image-7"/>
    <use transform="translate(70.74 86.29) scale(.24)" xlink:href="#image"/>
    <use transform="translate(70.74 86.29) scale(.24)" xlink:href="#image"/>
    <use transform="translate(68.82 87.49) scale(.24)" xlink:href="#image-10"/>
    <use transform="translate(68.82 87.49) scale(.24)" xlink:href="#image-10"/>
    <use transform="translate(68.1 11.17) scale(.24)" xlink:href="#image-5"/>
    <use transform="translate(68.1 11.17) scale(.24)" xlink:href="#image-5"/>
    <use transform="translate(67.38 89.17) scale(.24)" xlink:href="#image-8"/>
    <use transform="translate(67.38 89.17) scale(.24)" xlink:href="#image-8"/>
    <use transform="translate(66.66 89.65) scale(.24)" xlink:href="#image-3"/>
    <use transform="translate(66.66 89.65) scale(.24)" xlink:href="#image-3"/>
    <use transform="translate(46.98 6.13) scale(.24)" xlink:href="#image-9"/>
    <use transform="translate(46.98 6.13) scale(.24)" xlink:href="#image-9"/>
    <path class="cls-b" d="M22.2,42.04l2.23,2.63h-6.09c.14-1.47.34-2.92.59-4.34l.52-2.34,2.13,3.21.12.17.06.09c.04.05.08.11.12.16.03.04.07.09.11.14.04.05.08.1.12.15.04.04.08.09.11.14Z"/>
  </g>
  <g id="p-letter">
    <path class="cls-v" d="M72.71,12.27c-2.99-2.79-6.33-4.99-9.91-6.47-.28-.12-.57-.24-.86-.34h2.06s.01,0,.02,0h.01s3.56,0,3.56,0c.22.11.45.22.66.34,1.57.81,3.06,1.7,4.46,2.65,3.31,2.26,6.11,4.89,8.26,7.81.07.09.14.18.2.28,3.05,4.19,4.76,8.96,4.76,14.03,0,.22,0,.45-.01.67-.23.64-.46,1.26-.72,1.88-1.35-4.51-3.23-8.67-5.55-12.36,0-.01,0-.02,0-.03-.25-.39-.5-.78-.75-1.16-.78-1.15-1.6-2.26-2.46-3.31-1.16-1.44-2.41-2.77-3.72-3.99Z"/>
    <path class="cls-v" d="M48.17,45.33c.31.09.63.16.95.23-.32-.06-.64-.14-.95-.23Z"/>
    <path class="cls-v" d="M70.84,47.92c0-.3-.02-.6-.03-.9-.03-.73-.07-1.46-.14-2.17-.02-.27-.04-.54-.07-.81-.05-.49-.11-.98-.17-1.46-.07-.48-.13-.96-.21-1.43-.22-1.4-.51-2.76-.85-4.07-.75-2.9-1.76-5.56-2.99-7.92-.07-.15-.15-.29-.23-.43.14.73.22,1.47.23,2.23v.75c-.06,2.41-.71,4.69-1.82,6.67-.2.36-.41.71-.65,1.06-2.19,3.33-5.76,5.69-9.9,6.27-.65.09-1.33.14-2.01.14-.53,0-1.06-.03-1.58-.09-.15-.01-.29-.03-.43-.05-.1-.02-.2-.03-.3-.05-.19-.03-.38-.06-.57-.1-.32-.06-.64-.14-.95-.23-2.18-.6-4.15-1.71-5.77-3.19-.18-.15-.34-.31-.5-.47-2.71-2.61-4.39-6.28-4.39-10.34,0-.86.08-1.71.23-2.53-.06.1-.12.21-.17.31h0c-.04.09-.08.16-.12.23-1.15,2.26-2.1,4.78-2.82,7.5-.01.04-.02.08-.03.13h-.01c-.03.15-.07.31-.11.47-.27,1.07-.5,2.17-.69,3.29-.22,1.26-.38,2.55-.5,3.86-.04.44-.07.88-.1,1.33-.03.51-.06,1.01-.08,1.52-.01.51-.02,1.03-.02,1.54,0,.3,0,.6.01.9.99.61,2.01,1.16,3.06,1.66.19.09.38.18.57.27.41.2.83.38,1.26.56.35-.2.71-.39,1.09-.56.09-.05.19-.1.29-.14,1.66-.76,3.61-1.38,5.75-1.8,2.12-.41,4.43-.64,6.85-.64,0,0,3.66-.01,7.59.82,1.47.31,2.97.73,4.34,1.32.39.16.77.34.77.34.07.04.14.07.21.1.14.07.27.13.39.19l.36.18c.11.06.22.13.33.19.43-.17.85-.36,1.27-.56.2-.09.41-.19.61-.29,1.03-.49,2.03-1.04,3-1.65.01-.29.01-.59.01-.89,0-.36,0-.71-.01-1.06Z"/>
    <path class="cls-v" d="M31.73,47.44c-.01.51-.02,1.03-.02,1.54-.08-.05-.16-.1-.23-.15-.74-.5-1.45-1.03-2.14-1.59-.53-.43-1.05-.87-1.56-1.32h4.02c-.03.51-.05,1.01-.07,1.52Z"/>
    <path class="cls-v" d="M31.48,88.4v6.16h-13.2v-28.97c.07.28.15.57.24.84,2.52,8.93,7.09,16.58,12.96,21.97Z"/>
    <path class="cls-v" d="M23.68,53.92h-5.4v-4.21c1.65,1.58,3.46,2.99,5.4,4.21Z"/>
    <path class="cls-v" d="M19.11,48.73c-.29-.24-.56-.47-.83-.71v-2.13h7.14c2.18,2.43,4.27,4.25,6.06,5.3.1.06.19.11.28.16.01.16.01.31.02.46.03.71.08,1.41.15,2.11.06.67.13,1.34.22,2-.23-.07-.45-.15-.67-.24-1.21-.44-2.45-.96-3.7-1.56-.14-.06-.29-.13-.43-.2-.26-.12-.53-.26-.79-.39-2.85-1.45-5.37-3.1-7.45-4.8Z"/>
    <path class="cls-v" d="M18.25,5.46v26.39s.02.05.03.08c.15.42.32.84.49,1.25,1.51-5.02,3.68-9.62,6.36-13.61.77-1.16,1.58-2.26,2.44-3.31,1.22-1.51,2.53-2.9,3.91-4.16.78-.72,1.58-1.4,2.4-2.03.71-.55,1.44-1.07,2.19-1.55,1.64-1.08,3.36-1.99,5.13-2.72.29-.12.57-.24.86-.34h-23.81Z"/>
  </g>
  <g id="sleep">
    <path class="cls-v" d="M58.59,25.99h.51c0,.35-.51.63-1.13.63s-1.13-.28-1.13-.63h.5c0,.09.28.16.63.16s.62-.07.62-.16Z"/>
    <path class="cls-v" d="M46.59,25.99h.51c0,.35-.51.63-1.13.63s-1.13-.28-1.13-.63h.5c0,.09.28.16.63.16s.62-.07.62-.16Z"/>
  </g>
  <g id="_25" data-name="25">
    <path id="rd" class="cls-b" d="M58.59,25.99h.51c0,.35-.51.63-1.13.63s-1.13-.28-1.13-.63h.5c0,.09.28.16.63.16s.62-.07.62-.16Z"/>
    <path id="ld" class="cls-b" d="M46.59,25.99h.51c0,.35-.51.63-1.13.63s-1.13-.28-1.13-.63h.5c0,.09.28.16.63.16s.62-.07.62-.16Z"/>
    <path id="ru" class="cls-v" d="M57.97,25.37c-.62,0-1.13.28-1.13.62h.5c0,.09.28.16.63.16s.62-.07.62-.16h.51c0-.34-.51-.62-1.13-.62Z"/>
    <path id="lu" class="cls-v" d="M45.97,25.37c-.62,0-1.13.28-1.13.62h.5c0,.09.28.16.63.16s.62-.07.62-.16h.51c0-.34-.51-.62-1.13-.62Z"/>
  </g>
  <g id="_50" data-name="50">
    <path id="ru-2" data-name="ru" class="cls-v" d="M59.1,25.99h-.51c0-.22-.27-.4-.62-.4s-.63.18-.63.4h-.5c0-.87.51-1.57,1.13-1.57s1.13.71,1.13,1.57Z"/>
    <path id="rd-2" data-name="rd" class="cls-b" d="M58.59,25.99h.51c0,.87-.51,1.58-1.13,1.58s-1.13-.71-1.13-1.58h.5c0,.23.28.41.63.41s.62-.18.62-.41Z"/>
    <path id="rc" class="cls-w" d="M57.97,25.59c.35,0,.62.18.62.4s-.27.41-.62.41-.63-.18-.63-.41.28-.4.63-.4Z"/>
    <path id="lu-2" data-name="lu" class="cls-v" d="M47.1,25.99h-.51c0-.22-.27-.4-.62-.4s-.63.18-.63.4h-.5c0-.87.51-1.57,1.13-1.57s1.13.71,1.13,1.57Z"/>
    <path id="ld-2" data-name="ld" class="cls-b" d="M46.59,25.99h.51c0,.87-.51,1.58-1.13,1.58s-1.13-.71-1.13-1.58h.5c0,.23.28.41.63.41s.62-.18.62-.41Z"/>
    <path id="lc" class="cls-w" d="M45.97,25.59c.35,0,.62.18.62.4s-.27.41-.62.41-.63-.18-.63-.41.28-.4.63-.4Z"/>
  </g>
  <g id="_75" data-name="75">
    <path id="ru-3" data-name="ru" class="cls-v" d="M59.1,25.99h-.51c0-.28-.27-.51-.62-.51s-.63.23-.63.51h-.5c0-1.1.51-1.99,1.13-1.99s1.13.89,1.13,1.99Z"/>
    <path id="rd-3" data-name="rd" class="cls-b" d="M58.59,25.99h.51c0,1.1-.51,1.99-1.13,1.99s-1.13-.89-1.13-1.99h.5c0,.29.28.52.63.52s.62-.23.62-.52Z"/>
    <path id="rc-2" data-name="rc" class="cls-w" d="M57.97,25.48c.35,0,.62.23.62.51s-.27.52-.62.52-.63-.23-.63-.52.28-.51.63-.51Z"/>
    <path id="lu-3" data-name="lu" class="cls-v" d="M47.1,25.99h-.51c0-.28-.27-.51-.62-.51s-.63.23-.63.51h-.5c0-1.1.51-1.99,1.13-1.99s1.13.89,1.13,1.99Z"/>
    <path id="ld-3" data-name="ld" class="cls-b" d="M46.59,25.99h.51c0,1.1-.51,1.99-1.13,1.99s-1.13-.89-1.13-1.99h.5c0,.29.28.52.63.52s.62-.23.62-.52Z"/>
    <path id="lc-2" data-name="lc" class="cls-w" d="M45.97,25.48c.35,0,.62.23.62.51s-.27.52-.62.52-.63-.23-.63-.52.28-.51.63-.51Z"/>
  </g>
  <g id="static">
    <path id="ru-4" data-name="ru" class="cls-v" d="M59.1,25.99h-.51c0-.34-.27-.62-.62-.62s-.63.28-.63.62h-.5c0-1.34.51-2.43,1.13-2.43s1.13,1.09,1.13,2.43Z"/>
    <path id="rd-4" data-name="rd" class="cls-b" d="M58.59,25.99h.51c0,1.35-.51,2.44-1.13,2.44s-1.13-1.09-1.13-2.44h.5c0,.35.28.63.63.63s.62-.28.62-.63Z"/>
    <path id="rc-3" data-name="rc" class="cls-w" d="M57.97,25.37c.35,0,.62.28.62.62s-.27.63-.62.63-.63-.28-.63-.63.28-.62.63-.62Z"/>
    <path id="lu-4" data-name="lu" class="cls-v" d="M47.1,25.99h-.51c0-.34-.27-.62-.62-.62s-.63.28-.63.62h-.5c0-1.34.51-2.43,1.13-2.43s1.13,1.09,1.13,2.43Z"/>
    <path id="ld-4" data-name="ld" class="cls-b" d="M46.59,25.99h.51c0,1.35-.51,2.44-1.13,2.44s-1.13-1.09-1.13-2.44h.5c0,.35.28.63.63.63s.62-.28.62-.63Z"/>
    <path id="lc-3" data-name="lc" class="cls-w" d="M45.97,25.37c.35,0,.62.28.62.62s-.27.63-.62.63-.63-.28-.63-.63.28-.62.63-.62Z"/>
  </g>
  <g id="sx">
    <path id="rd-5" data-name="rd" class="cls-b" d="M59.08,25.57c.01.14.02.28.02.42,0,1.35-.51,2.44-1.13,2.44s-1.13-1.09-1.13-2.44c0-.14.01-.28.02-.42h.2c0,.35.28.63.62.63s.63-.28.63-.63h.77Z"/>
    <path id="ru-5" data-name="ru" class="cls-v" d="M59.08,25.57h-.77c0-.34-.28-.62-.63-.62s-.62.28-.62.62h-.2c.09-1.14.56-2.01,1.11-2.01s1.02.87,1.11,2.01Z"/>
    <path id="rc-4" data-name="rc" class="cls-w" d="M57.68,24.95c-.34,0-.62.28-.62.62s.28.63.62.63.63-.28.63-.63-.28-.62-.63-.62Z"/>
    <path id="ld-5" data-name="ld" class="cls-b" d="M47.08,25.57c0,.14.02.28.02.42,0,1.35-.51,2.44-1.13,2.44s-1.13-1.09-1.13-2.44c0-.14.01-.28.02-.42h.23c0,.35.28.63.62.63s.63-.28.63-.63h.74Z"/>
    <path id="lu-5" data-name="lu" class="cls-v" d="M47.08,25.57h-.74c0-.34-.28-.62-.63-.62s-.62.28-.62.62h-.23c.09-1.14.56-2.01,1.11-2.01s1.02.87,1.11,2.01Z"/>
    <path id="lc-4" data-name="lc" class="cls-w" d="M45.71,24.95c-.34,0-.62.28-.62.62s.28.63.62.63.63-.28.63-.63-.28-.62-.63-.62Z"/>
  </g>
  <g id="dx">
    <path id="rd-6" data-name="rd" class="cls-b" d="M56.84,25.99c0-.27.02-.54.06-.78h.7c0,.34.28.62.63.62s.62-.28.62-.62h.19c.04.24.06.51.06.78,0,1.35-.51,2.44-1.13,2.44s-1.13-1.09-1.13-2.44Z"/>
    <path id="ru-6" data-name="ru" class="cls-v" d="M57.97,23.56c.49,0,.92.69,1.07,1.65h-.19c0-.35-.28-.63-.62-.63s-.63.28-.63.63h-.7c.15-.96.58-1.65,1.07-1.65Z"/>
    <path id="rc-5" data-name="rc" class="cls-w" d="M58.23,24.58c-.35,0-.63.28-.63.63s.28.62.63.62.62-.28.62-.62-.28-.63-.62-.63Z"/>
    <path id="ld-6" data-name="ld" class="cls-b" d="M47.1,25.99c0,1.35-.51,2.44-1.13,2.44s-1.13-1.09-1.13-2.44c0-.27.02-.54.06-.78h.68c0,.34.28.62.63.62s.62-.28.62-.62h.21c.04.24.06.51.06.78Z"/>
    <path id="lu-6" data-name="lu" class="cls-v" d="M44.9,25.21c.15-.96.58-1.65,1.07-1.65s.92.69,1.07,1.65h-.21c0-.35-.28-.63-.62-.63s-.63.28-.63.63h-.68Z"/>
    <path id="lc-5" data-name="lc" class="cls-w" d="M46.21,24.58c-.35,0-.63.28-.63.63s.28.62.63.62.62-.28.62-.62-.28-.63-.62-.63Z"/>
  </g>
</svg>