<?xml version="1.0" encoding="UTF-8"?>
<svg id="proCol-ico" xmlns="http://www.w3.org/2000/svg" viewBox="0 0 374.82 89.11">
  <defs>
    <style>
      

      .cls-v, .cls-b, .cls-l, .cls-w {
        stroke-width: 0px;
      }
      
      .cls-v {
        fill: #482773;
      }

      .cls-b {
        fill: #99c8ed;
      }

      .cls-l {
        fill: #66669a;
      }

      .cls-w {
        fill: #fff;
      }

      #dx, #sx, #static, #_75, #_50, #_25, #sleep {
        display: none;
      }
    </style>
  </defs>
  <g id="c-letter">
    <path class="cls-b" d="M67.68,45.04v.24c0,.44-.01.87-.03,1.3-.01.55-.03,1.09-.07,1.63,0,.09,0,.17,0,.26l-.03.42c-.01.14-.02.27-.03.41-.03.37-.06.73-.1,1.09-.06.76-.15,1.51-.26,2.25-.1.73-.21,1.45-.34,2.17-.25,1.43-.56,2.83-.91,4.2-.18.69-.37,1.37-.57,2.04-.18.57-.36,1.14-.55,1.71-.03.1-.06.19-.1.28-.2.58-.41,1.16-.63,1.73-.02.07-.05.13-.08.2-.36.92-.75,1.82-1.15,2.7-.16.34-.32.67-.49,1.01-.29.6-.59,1.18-.9,1.76-.21.38-.42.76-.65,1.14-.28.48-.56.94-.85,1.4-.17.27-.34.55-.53.82-.35.53-.72,1.06-1.09,1.57-.61.84-1.25,1.65-1.91,2.42-.35.41-.71.81-1.07,1.2-.28.31-.57.61-.87.91-.35.36-.71.7-1.07,1.03-.22.21-.45.41-.67.61-.22.21-.45.4-.68.59-.46.38-.93.75-1.4,1.11-.24.18-.48.36-.72.52-.24.17-.48.34-.72.5-.23.15-.45.3-.68.44-1.38.88-2.81,1.63-4.29,2.25-.22.1-.45.19-.68.28-.25.1-.51.2-.77.29-1.81.65-3.67,1.11-5.59,1.36-.26.04-.51.07-.77.09-.55.06-1.1.1-1.65.12-.34.01-.68.02-1.02.02s-.67-.01-1-.02c-.89-.03-1.78-.11-2.65-.24-.2-.02-.41-.05-.61-.09-.23-.03-.46-.07-.68-.12-.33-.06-.65-.13-.97-.2s-.64-.15-.95-.24c-.32-.08-.64-.17-.95-.27-.36-.11-.72-.23-1.08-.36-.26-.09-.52-.19-.78-.29-.25-.09-.49-.19-.74-.3-1.57-.66-3.1-1.47-4.57-2.41-.16-.1-.31-.2-.47-.31-.24-.16-.48-.33-.72-.5-.48-.34-.96-.69-1.42-1.07-.21-.16-.42-.33-.63-.51-.79-.65-1.56-1.35-2.3-2.09-.3-.29-.59-.59-.87-.9-.28-.29-.55-.59-.81-.89-.17-.19-.34-.38-.5-.58-.47-.55-.93-1.11-1.37-1.7-.24-.3-.47-.62-.7-.94-.48-.68-.96-1.38-1.41-2.1-.17-.27-.34-.55-.51-.83-.34-.56-.67-1.13-.99-1.71l-.45-.87c-.16-.29-.31-.59-.45-.89l-.15-.3c-.14-.29-.28-.58-.41-.88-.11-.24-.22-.49-.32-.73-.13-.28-.25-.56-.37-.85-.35-.83-.68-1.68-.98-2.55-.17-.47-.33-.94-.48-1.43-.16-.48-.31-.96-.45-1.45h0c-.24-.83-.46-1.66-.66-2.51-.24-1.01-.45-2.04-.64-3.08-.04-.2-.07-.4-.11-.61-.04-.23-.08-.46-.11-.69-.05-.32-.1-.63-.14-.96l-.09-.72c-.04-.32-.08-.63-.11-.95-.04-.31-.06-.63-.09-.95-.01-.11-.03-.22-.03-.32h7.49c.66.36,1.33.7,2.01,1,1.2.57,2.43,1.06,3.7,1.49.32.11.65.21.98.31.3,1.76.69,3.47,1.15,5.1,2.99,10.42,9.22,17.88,16.57,18.93.03.01.06.01.09.01.26.03.51.06.76.09.29.02.58.03.87.03h.14c.14,0,.28,0,.42-.01.08,0,.16-.01.24-.01.17,0,.35-.02.52-.04.27-.02.55-.06.82-.11,3.67-.58,7.05-2.77,9.87-6.13,1.25-1.48,2.39-3.19,3.4-5.09.92-1.73,1.73-3.61,2.41-5.62.22-.67.44-1.35.64-2.05.43-1.53.8-3.12,1.09-4.77,1.29-.34,2.55-.76,3.77-1.24,2.93-1.15,5.68-2.66,8.17-4.5.88-.64,1.73-1.33,2.54-2.05Z"/>
    <path class="cls-b" d="M66.37,32.56c.74,3.36,1.18,6.89,1.29,10.54-1.06.88-2.24,1.75-3.52,2.59-1.29.83-2.67,1.64-4.15,2.39-1.01.52-2.02.99-3.02,1.4-1.18.5-2.34.93-3.47,1.29.19-1.44.33-2.91.4-4.41,0-.14,0-.28.02-.42,3.03-1.62,6.94-5.58,10.8-10.98.56-.77,1.11-1.57,1.65-2.4Z"/>
    <path class="cls-b" d="M65.77,30.09s.02.07.03.11c-.15.28-.29.56-.45.84-.56,1.04-1.17,2.04-1.83,3.02-1.99,2.91-4.41,5.52-7.16,7.73-.77.62-1.56,1.2-2.38,1.75,0-.39,0-.78-.02-1.17,0-.16,0-.31-.01-.47,0-.3-.02-.61-.04-.91,0-.24-.02-.48-.04-.72,0-.17-.02-.35-.04-.52-.1-1.63-.29-3.21-.55-4.75-.31-1.94-.73-3.8-1.26-5.58-.98-3.37-2.3-6.43-3.89-9.05-2.04-3.38-4.53-6.04-7.3-7.74-2.22-1.35-4.61-2.09-7.11-2.09s-4.9.74-7.11,2.09c-2.82,1.72-5.35,4.45-7.41,7.91-1.53,2.56-2.8,5.52-3.76,8.78-.5,1.69-.91,3.46-1.21,5.29-.27,1.49-.47,3.03-.59,4.6h-5.43c-1.22-1.21-2.35-2.51-3.38-3.89s-1.96-2.84-2.77-4.36c-.13-.23-.24-.45-.36-.68.28-1.08.59-2.14.94-3.18l.18-.54c.22-.63.45-1.26.69-1.87.13-.34.27-.68.41-1.02.04-.1.08-.19.12-.29.05-.11.1-.23.15-.34.19-.45.39-.9.6-1.34.05-.1.09-.19.14-.29.16-.34.33-.68.51-1.02.11-.23.23-.46.35-.69.55-1.05,1.13-2.06,1.75-3.04.01-.02.02-.04.04-.06.15-.25.32-.49.49-.74.1-.17.21-.34.33-.51.1-.15.21-.3.31-.45.28-.4.57-.8.87-1.19.07-.1.14-.19.22-.29.7-.91,1.43-1.78,2.19-2.61.2-.23.4-.45.61-.66.21-.22.42-.43.63-.64,0-.01.03-.03.04-.03.36-.36.72-.71,1.09-1.04l.05-.05c.35-.32.7-.62,1.05-.92.19-.16.37-.31.56-.45.19-.16.37-.3.56-.44.19-.15.37-.29.56-.42.19-.15.38-.28.58-.41.15-.12.31-.22.47-.33.47-.32.94-.62,1.43-.91.23-.15.47-.28.71-.42h.01c.21-.12.43-.24.64-.35.03-.02.07-.03.1-.05.25-.13.49-.25.74-.38.25-.12.5-.23.75-.35.24-.11.49-.22.74-.33h.01c.21-.09.42-.17.63-.26.04,0,.09-.03.14-.05.25-.1.51-.2.77-.29.11-.04.22-.08.34-.12.14-.05.29-.09.43-.14.26-.09.53-.17.79-.24.78-.23,1.57-.42,2.37-.57.34-.06.67-.12,1.01-.17.72-.11,1.46-.19,2.2-.24.18-.01.36-.02.53-.03.41-.02.81-.03,1.22-.03.61,0,1.21.02,1.8.06.64.04,1.27.11,1.9.2.21.03.42.06.62.1.48.07.96.17,1.43.28.14.02.27.06.41.09,2.22.53,4.36,1.34,6.41,2.41.37.19.73.39,1.09.6.36.2.71.41,1.06.63.18.12.37.24.55.36.3.2.6.4.9.62.24.17.48.34.72.52.38.28.75.57,1.11.87.27.22.55.45.81.69.33.28.65.57.96.87.31.28.61.58.91.88l.03.03c.37.36.72.73,1.06,1.11.06.06.11.12.17.19.33.36.66.74.98,1.13.02.02.04.04.05.06.28.33.56.67.82,1.02.17.2.32.41.48.62.23.31.46.62.68.94.06.08.11.15.16.23.14.19.27.39.4.58.07.09.13.19.18.28.09.12.18.25.25.38.09.12.17.25.24.37.17.27.34.55.51.83s.34.56.5.84l.27.48s.03.04.04.07c.17.3.33.6.48.91.37.68.72,1.38,1.04,2.08.06.14.12.28.19.42.22.47.43.95.62,1.43.03.08.07.16.1.24.04.1.08.19.11.28.32.77.62,1.56.89,2.37.11.33.23.66.33.99.28.83.53,1.68.76,2.54Z"/>
    <path class="cls-b" d="M3.94,36.58l2.23,2.63H.08c.14-1.47.34-2.91.59-4.33l.52-2.34,2.13,3.21.12.17.06.09c.04.05.07.1.11.16.04.04.07.09.11.13.04.05.07.1.11.15.04.04.08.09.11.13Z"/>
  </g>
  <g id="p-letter">
    <path class="cls-v" d="M67.68,25.12c0,.22,0,.45-.01.67-.23.64-.46,1.26-.72,1.88-1.35-4.51-3.23-8.67-5.55-12.36v-.03c-.25-.39-.5-.78-.75-1.16-.78-1.15-1.6-2.26-2.46-3.31-1.16-1.44-2.41-2.77-3.72-3.99h-.01c-2.99-2.79-6.33-4.99-9.91-6.47-.28-.12-.57-.24-.86-.34h5.11c.22.11.99.22,1.2.34,1.57.81,3.06,1.7,4.46,2.65,3.31,2.26,6.11,4.89,8.26,7.81.07.09.14.18.2.28,3.05,4.19,4.76,8.96,4.76,14.03Z"/>
    <path class="cls-v" d="M52.59,42.47c.01.35.01.7.01,1.06,0,.3,0,.6-.01.89-.97.61-1.97,1.16-3,1.65-.2.1-.41.2-.61.29-.42.2-.84.39-1.27.56-.11-.06-.22-.13-.33-.19l-.36-.18c-.12-.06-.25-.12-.39-.19-.07-.03-.14-.06-.21-.1,0,0-.38-.18-.77-.34-1.37-.59-2.87-1.01-4.34-1.32-3.93-.83-7.59-.82-7.59-.82-2.42,0-4.73.23-6.85.64-2.14.42-4.09,1.04-5.75,1.8-.1.04-.2.09-.29.14-.38.17-.74.36-1.09.56-.43-.18-.85-.36-1.26-.56l-.57-.27c-1.05-.5-2.07-1.05-3.06-1.66-.01-.3-.01-.6-.01-.9,0-.51.01-1.03.02-1.54.02-.51.05-1.01.08-1.52.03-.45.06-.89.1-1.33.12-1.31.28-2.6.5-3.86.19-1.12.42-2.22.69-3.29.04-.16.08-.32.11-.47h.01c.01-.05.02-.09.03-.13.72-2.72,1.67-5.24,2.82-7.5.04-.07.08-.14.12-.23.05-.1.11-.21.17-.31-.15.82-.23,1.67-.23,2.53,0,4.06,1.68,7.73,4.39,10.34.16.16.32.32.5.47,1.62,1.48,3.59,2.59,5.77,3.19.31.09.63.17.95.23.19.04.38.07.57.1.1.02.2.03.3.05.14.02.28.04.43.05.52.06,1.05.09,1.58.09.68,0,1.36-.05,2.01-.14,4.14-.58,7.71-2.94,9.9-6.27.24-.35.45-.7.65-1.06,1.11-1.98,1.76-4.26,1.82-6.67v-.75c-.01-.76-.09-1.5-.23-2.23.08.14.16.28.23.43,1.23,2.36,2.24,5.02,2.99,7.92.34,1.31.63,2.67.85,4.07.08.47.14.95.21,1.43.06.48.12.97.17,1.46.03.27.05.54.07.81.07.71.11,1.44.14,2.17.01.3.03.6.03.9Z"/>
    <path class="cls-v" d="M0,.01h23.81c-.29.1-.57.22-.86.34-1.77.73-3.49,1.64-5.13,2.72-.75.48-1.48,1-2.19,1.55-.82.63-1.62,1.31-2.4,2.03-1.38,1.26-2.69,2.65-3.91,4.16-.86,1.05-1.67,2.15-2.44,3.31-2.68,3.99-4.85,8.59-6.36,13.61-.17-.41-.34-.83-.49-1.25,0-.03-.03-.08-.03-.08V.01Z"/>
    <path class="cls-v" d="M13.9,50.47c-.23-.07-.45-.15-.67-.24-1.21-.44-2.45-.96-3.7-1.56-.14-.06-.29-.13-.43-.2-.26-.12-.53-.26-.79-.39-2.85-1.45-5.37-3.1-7.45-4.8-.29-.24-.56-.47-.83-.71v-2.13h7.14c2.18,2.43,4.27,4.25,6.06,5.3.1.06.19.11.28.16.01.16.01.31.02.46.03.71.08,1.41.15,2.11.06.67.13,1.34.22,2Z"/>
    <path class="cls-v" d="M13.55,40.47c-.03.51-.05,1.01-.07,1.52-.01.51-.02,1.03-.02,1.54-.08-.05-.16-.1-.23-.15-.74-.5-1.45-1.03-2.14-1.59-.53-.43-1.05-.87-1.56-1.32h4.02Z"/>
    <path class="cls-v" d="M13.23,82.95v6.16H.03v-28.97c.07.28.15.57.24.84,2.52,8.93,7.09,16.58,12.96,21.97Z"/>
    <path class="cls-v" d="M5.43,48.47H.03v-4.21c1.65,1.58,3.46,2.99,5.4,4.21Z"/>
  </g>
  <g id="procol-h">
    <path class="cls-v" d="M86.25,37.09v-1.48c1.39-.11,2.19-.22,2.37-.33.14-.07.25-.19.32-.37.12-.29.2-1.51.25-3.64s.08-4.2.08-6.21c0-3.74-.04-6.41-.11-8.02s-.2-2.5-.37-2.69-.68-.31-1.52-.37l-1.02-.09v-1.48l1.99.07c1.23.04,2.21.05,2.94.05,1,0,2.6-.02,4.82-.07,1.2-.03,2.07-.05,2.64-.05,2.1,0,3.65.2,4.65.6,1,.4,1.76,1,2.29,1.8.52.81.78,1.81.78,3.01,0,2.17-.77,3.99-2.31,5.45-1.54,1.46-3.5,2.2-5.88,2.2-.3,0-.63-.02-.97-.07s-.7-.11-1.09-.19c-.2-.42-.41-.82-.63-1.22l.4-.44c.26.05.5.1.71.13s.41.05.59.05c1.18,0,2.15-.41,2.9-1.22s1.12-1.95,1.12-3.42c0-1.63-.39-2.84-1.16-3.65s-1.92-1.2-3.42-1.2c-.61,0-1.33.09-2.15.26-.12,3.61-.18,6.66-.18,9.17,0,.84.05,3.53.14,8.06.04,1.79.09,2.82.18,3.09.06.2.17.34.33.42.26.13,1.25.25,2.99.35v1.48c-2.07-.08-3.82-.12-5.24-.12-.63,0-2.78.04-6.43.12v.02Z"/>
    <path class="cls-l" d="M107.24,37.09v-1.44c1.18-.06,1.86-.13,2.04-.21.14-.07.25-.18.33-.33.13-.28.21-.9.23-1.87.05-1.71.07-3.27.07-4.68,0-2.71-.04-4.32-.11-4.82-.04-.29-.14-.5-.32-.62s-.93-.21-2.25-.26v-1.35c2.36-.23,4.05-.5,5.07-.84l1.81-.68c.16,0,.25.11.25.33v.25c-.05.74-.07,1.8-.07,3.18.6-.57,1.26-1.3,1.99-2.18.54-.66,1.01-1.08,1.41-1.28s.93-.3,1.6-.3c.38,0,.76.06,1.14.19-.11,1.17-.18,2.77-.21,4.78l-.79.28c-.27-.46-.57-.78-.89-.96s-.74-.27-1.26-.27c-.7,0-1.31.18-1.81.55-.5.36-.83.78-.97,1.25-.09.35-.14,1.55-.14,3.6,0,2.97.04,4.71.12,5.2.05.33.16.55.33.67.27.18,1.15.3,2.65.37v1.44l-1.97-.05c-1.25-.04-2.34-.05-3.25-.05s-1.88.02-3.02.05l-1.99.05h0Z"/>
    <path class="cls-l" d="M122.32,28.73c0-2.78.65-4.87,1.95-6.26,1.56-1.65,3.81-2.48,6.75-2.48s5.07.66,6.42,1.99c1.35,1.33,2.02,3.42,2.02,6.28s-.78,5.21-2.33,6.81-3.71,2.39-6.48,2.39-4.79-.75-6.21-2.23c-1.42-1.49-2.13-3.65-2.13-6.49h.01ZM127.19,27.53c0,3.12.4,5.35,1.2,6.68.62,1.02,1.55,1.53,2.79,1.53,1.09,0,1.93-.43,2.52-1.3.59-.87.89-2.45.89-4.74,0-3.15-.36-5.33-1.09-6.54-.6-.96-1.53-1.44-2.79-1.44-1.09,0-1.95.44-2.58,1.32-.63.88-.94,2.38-.94,4.49Z"/>
    <path class="cls-b" d="M165.36,33.28l.44.4c-.3.59-.57,1.18-.81,1.79-1.36.71-2.67,1.22-3.93,1.52s-2.71.45-4.35.45c-3.07,0-5.67-.54-7.79-1.62s-3.75-2.6-4.9-4.55-1.71-4.2-1.71-6.73c0-3.64,1.29-6.63,3.88-8.96s6.15-3.49,10.7-3.49c1.51,0,3.01.13,4.49.4s2.96.68,4.42,1.23l.12.26c-.22.63-.37,1.24-.45,1.83-.16,1.02-.28,2.29-.36,3.8h-1.48c-.07-1.85-.14-2.87-.21-3.05s-.39-.49-.97-.93-1.35-.8-2.33-1.07-2.06-.41-3.24-.41c-2.81,0-5.04.87-6.7,2.6-1.66,1.73-2.48,4.15-2.48,7.24,0,3.35,1,6.06,2.99,8.14,1.84,1.92,4.37,2.88,7.58,2.88,1.24,0,2.41-.13,3.49-.39s2.28-.71,3.59-1.35h0Z"/>
    <path class="cls-l" d="M168.34,28.73c0-2.78.65-4.87,1.95-6.26,1.56-1.65,3.81-2.48,6.75-2.48s5.07.66,6.42,1.99c1.35,1.33,2.02,3.42,2.02,6.28s-.78,5.21-2.33,6.81-3.71,2.39-6.48,2.39-4.79-.75-6.21-2.23c-1.42-1.49-2.13-3.65-2.13-6.49h.01ZM173.21,27.53c0,3.12.4,5.35,1.2,6.68.62,1.02,1.55,1.53,2.79,1.53,1.09,0,1.93-.43,2.52-1.3.59-.87.89-2.45.89-4.74,0-3.15-.36-5.33-1.09-6.54-.6-.96-1.53-1.44-2.79-1.44-1.09,0-1.95.44-2.58,1.32s-.94,2.38-.94,4.49Z"/>
    <path class="cls-l" d="M187.93,13.52v-1.02c1.66-.22,2.98-.45,3.94-.69s2-.57,3.11-1l.46.39c-.18,4.19-.26,10.04-.26,17.55,0,1.51.02,3.05.07,4.59.02.99.08,1.56.17,1.72s.23.28.42.38c.19.09.89.16,2.09.21v1.44l-1.84-.05c-1.15-.04-2.11-.05-2.9-.05l-5.25.11v-1.44l1.3-.07c.59-.02.96-.13,1.13-.33.17-.19.27-.93.31-2.21.06-1.77.09-4.29.09-7.55l-.02-7.52c0-2.29-.08-3.58-.19-3.87-.05-.14-.13-.25-.26-.32-.21-.13-1-.22-2.36-.26h-.01Z"/>
  </g>
  <g id="procol-p">
    <path class="cls-l" d="M94.45,67.09c0,1.27-.36,2.33-1.07,3.19s-1.76,1.29-3.14,1.29-2.32-.41-3.01-1.24c-.68-.83-1.02-1.91-1.02-3.25v-6.77h1.3v6.68c0,1.11.26,1.94.8,2.51.53.57,1.22.85,2.08.85s1.49-.27,2-.82.77-1.36.77-2.43v-6.8h1.3v6.78h-.01Z"/>
    <path class="cls-l" d="M103.45,71.38h-1.27v-4.69c0-.78-.15-1.35-.45-1.73s-.74-.57-1.34-.57c-.67,0-1.21.24-1.62.71s-.62,1.06-.62,1.78v4.51h-1.27v-7.9h1.27v1.13h.03c.3-.44.66-.77,1.1-.98.43-.22.93-.33,1.5-.33.86,0,1.53.28,1.98.84.46.56.69,1.37.69,2.42v4.83-.02Z"/>
    <path class="cls-l" d="M111.28,71.38h-1.27v-1.05h-.03c-.27.4-.61.7-1.02.92-.41.21-.86.32-1.35.32-.79,0-1.4-.21-1.85-.63s-.67-.95-.67-1.58c0-.74.23-1.32.69-1.72s1.11-.66,1.95-.76l2.28-.26v-.5c0-.57-.15-1-.44-1.28-.3-.29-.7-.43-1.22-.43-.49,0-.89.11-1.21.33s-.56.52-.73.91l-1.1-.46c.26-.6.66-1.06,1.19-1.39.54-.33,1.18-.49,1.93-.49.92,0,1.63.25,2.12.74.49.49.74,1.18.74,2.06v5.29-.02ZM110.01,68.17v-.54l-2.19.25c-.49.06-.85.2-1.08.42s-.35.52-.35.89c0,.41.13.73.4.98.27.24.62.37,1.05.37.65,0,1.17-.22,1.57-.67s.6-1.01.6-1.69h0Z"/>
    <path class="cls-l" d="M118.51,70.42h-.03v4.59h-1.27v-11.54h1.27v1.2h.03c.33-.46.72-.81,1.18-1.04.45-.23.97-.35,1.54-.35,1.07,0,1.9.35,2.49,1.06s.89,1.68.89,2.91-.32,2.31-.96,3.11-1.52,1.19-2.64,1.19c-.53,0-1-.1-1.41-.29s-.77-.48-1.09-.85h0ZM118.48,67.05v1.1c0,.64.22,1.19.67,1.64s1.02.67,1.71.67c.77,0,1.37-.29,1.8-.87.44-.58.65-1.34.65-2.28s-.2-1.7-.61-2.19-.96-.74-1.65-.74c-.77,0-1.39.25-1.86.76s-.71,1.14-.71,1.9h0Z"/>
    <path class="cls-l" d="M127.15,61.69c-.27,0-.49-.09-.66-.27-.17-.18-.25-.4-.25-.65s.08-.46.25-.64.39-.27.66-.27.49.09.66.27c.17.18.25.4.25.64s-.08.46-.25.65c-.17.18-.39.27-.66.27ZM127.76,71.38h-1.27v-7.9h1.27v7.9Z"/>
    <path class="cls-l" d="M135.74,71.38h-1.27v-1.05h-.03c-.27.4-.61.7-1.02.92-.41.21-.86.32-1.35.32-.79,0-1.4-.21-1.85-.63-.45-.42-.67-.95-.67-1.58,0-.74.23-1.32.69-1.72s1.11-.66,1.95-.76l2.28-.26v-.5c0-.57-.15-1-.44-1.28-.3-.29-.7-.43-1.22-.43-.49,0-.89.11-1.21.33s-.56.52-.73.91l-1.1-.46c.26-.6.66-1.06,1.19-1.39.54-.33,1.18-.49,1.93-.49.92,0,1.63.25,2.12.74.49.49.74,1.18.74,2.06v5.29-.02ZM134.48,68.17v-.54l-2.19.25c-.49.06-.85.2-1.08.42s-.35.52-.35.89c0,.41.13.73.4.98.27.24.62.37,1.05.37.65,0,1.17-.22,1.57-.67.4-.45.6-1.01.6-1.69h0Z"/>
    <path class="cls-l" d="M142.08,70.88c-.23.23-.49.4-.76.51s-.6.16-.98.16c-.62,0-1.1-.17-1.44-.52s-.51-.85-.51-1.49v-4.98h-1.36v-1.08h1.36v-1.87l1.27-.22v2.09h2.12v1.08h-2.12v4.87c0,.38.07.65.22.82s.37.25.68.25c.15,0,.3-.03.44-.09s.29-.18.44-.36l.65.83h-.01Z"/>
    <path class="cls-l" d="M147.72,70.88c-.23.23-.49.4-.76.51s-.6.16-.98.16c-.62,0-1.1-.17-1.44-.52s-.51-.85-.51-1.49v-4.98h-1.36v-1.08h1.36v-1.87l1.27-.22v2.09h2.12v1.08h-2.12v4.87c0,.38.07.65.22.82s.37.25.68.25c.15,0,.3-.03.44-.09s.29-.18.44-.36l.65.83h-.01Z"/>
    <path class="cls-l" d="M154.86,71.38h-1.27v-1.05h-.03c-.27.4-.61.7-1.02.92-.41.21-.86.32-1.35.32-.79,0-1.4-.21-1.85-.63-.45-.42-.67-.95-.67-1.58,0-.74.23-1.32.69-1.72s1.11-.66,1.95-.76l2.28-.26v-.5c0-.57-.15-1-.44-1.28-.3-.29-.7-.43-1.22-.43-.49,0-.89.11-1.21.33s-.56.52-.73.91l-1.1-.46c.26-.6.66-1.06,1.19-1.39.54-.33,1.18-.49,1.93-.49.92,0,1.63.25,2.12.74.49.49.74,1.18.74,2.06v5.29-.02ZM153.59,68.17v-.54l-2.19.25c-.49.06-.85.2-1.08.42s-.35.52-.35.89c0,.41.13.73.4.98.27.24.62.37,1.05.37.65,0,1.17-.22,1.57-.67.4-.45.6-1.01.6-1.69h0Z"/>
    <path class="cls-l" d="M160.91,60.82c-.11-.07-.24-.12-.37-.17-.14-.05-.3-.07-.48-.07-.4,0-.7.12-.91.36s-.32.59-.32,1.06v1.47h1.85v1.08h-1.85v6.82h-1.26v-6.82h-1.35v-1.08h1.35v-1.54c0-.71.23-1.29.68-1.75s1.06-.68,1.83-.68c.24,0,.49.03.73.09.24.06.48.15.69.27l-.59.95h0Z"/>
    <path class="cls-l" d="M165.41,71.56c-1.23,0-2.19-.37-2.89-1.1s-1.04-1.71-1.04-2.95.39-2.29,1.16-3.07,1.74-1.16,2.89-1.16,2.12.38,2.81,1.13,1.04,1.75,1.04,2.98-.36,2.18-1.07,2.98-1.68,1.19-2.91,1.19h.01ZM165.48,70.47c.8,0,1.43-.27,1.9-.8.47-.53.71-1.27.71-2.23s-.24-1.64-.71-2.2-1.11-.85-1.9-.85-1.45.28-1.95.85-.75,1.31-.75,2.23.25,1.7.75,2.22c.5.52,1.15.78,1.95.78Z"/>
    <path class="cls-l" d="M175.3,64.66c-.12-.06-.26-.1-.4-.14s-.3-.05-.48-.05c-.57,0-1.03.27-1.38.81s-.53,1.23-.53,2.07v4.03h-1.27v-7.9h1.27v1.44h.03c.18-.49.46-.88.83-1.16.37-.28.79-.42,1.24-.42.21,0,.4.02.57.05.17.03.36.1.58.2l-.47,1.07h0Z"/>
    <path class="cls-l" d="M188.17,71.38h-1.27v-4.54c0-.86-.13-1.49-.41-1.88-.27-.39-.72-.58-1.36-.58-.54,0-1,.24-1.38.73-.38.49-.57,1.07-.57,1.75v4.51h-1.27v-4.69c0-.77-.15-1.34-.45-1.72-.3-.38-.75-.58-1.35-.58-.56,0-1.01.23-1.37.69s-.54,1.06-.54,1.79v4.51h-1.27v-7.9h1.27v1.13h.03c.28-.44.63-.77,1.04-.98.41-.22.88-.33,1.42-.33s.99.14,1.39.42c.39.28.66.64.81,1.1.3-.5.67-.88,1.12-1.13.44-.25.96-.38,1.55-.38.87,0,1.52.27,1.96.8.44.54.65,1.34.65,2.42v4.87h0Z"/>
    <path class="cls-l" d="M196.01,71.38h-1.27v-1.05h-.03c-.27.4-.61.7-1.02.92-.41.21-.86.32-1.35.32-.79,0-1.4-.21-1.85-.63-.45-.42-.67-.95-.67-1.58,0-.74.23-1.32.69-1.72s1.11-.66,1.95-.76l2.28-.26v-.5c0-.57-.15-1-.44-1.28-.3-.29-.7-.43-1.22-.43-.49,0-.89.11-1.21.33s-.56.52-.73.91l-1.1-.46c.26-.6.66-1.06,1.19-1.39.54-.33,1.18-.49,1.93-.49.92,0,1.63.25,2.12.74.49.49.74,1.18.74,2.06v5.29-.02ZM194.74,68.17v-.54l-2.19.25c-.49.06-.85.2-1.08.42s-.35.52-.35.89c0,.41.13.73.4.98.27.24.62.37,1.05.37.65,0,1.17-.22,1.57-.67.4-.45.6-1.01.6-1.69h0Z"/>
    <path class="cls-l" d="M203.24,70.42h-.03v4.59h-1.27v-11.54h1.27v1.2h.03c.33-.46.72-.81,1.18-1.04.45-.23.97-.35,1.54-.35,1.07,0,1.9.35,2.49,1.06.59.71.89,1.68.89,2.91s-.32,2.31-.96,3.11-1.52,1.19-2.64,1.19c-.53,0-1-.1-1.41-.29s-.77-.48-1.09-.85h0ZM203.21,67.05v1.1c0,.64.22,1.19.67,1.64s1.02.67,1.71.67c.77,0,1.37-.29,1.8-.87.44-.58.65-1.34.65-2.28s-.2-1.7-.61-2.19-.96-.74-1.65-.74c-.77,0-1.39.25-1.86.76s-.71,1.14-.71,1.9h0Z"/>
    <path class="cls-l" d="M217.68,67.65h-5.7c0,.98.23,1.69.7,2.14s1.02.67,1.66.67c.48,0,.91-.11,1.28-.34.37-.22.67-.56.92-1l1.03.52c-.28.57-.7,1.03-1.25,1.38-.56.35-1.24.53-2.06.53-1.05,0-1.91-.35-2.58-1.04s-1.01-1.72-1.01-3.06c0-1.2.34-2.19,1.02-2.98.68-.79,1.55-1.19,2.61-1.19s1.91.33,2.5.98c.59.65.89,1.56.89,2.72v.66h-.01ZM216.39,66.59c0-.68-.19-1.22-.56-1.62s-.89-.59-1.55-.59-1.16.21-1.56.63-.65.95-.72,1.57h4.4,0Z"/>
    <path class="cls-l" d="M223.49,64.66c-.12-.06-.26-.1-.4-.14s-.3-.05-.48-.05c-.57,0-1.03.27-1.38.81s-.53,1.23-.53,2.07v4.03h-1.27v-7.9h1.27v1.44h.03c.18-.49.46-.88.83-1.16.37-.28.79-.42,1.24-.42.21,0,.4.02.57.05.17.03.36.1.58.2l-.47,1.07h0Z"/>
    <path class="cls-l" d="M230.35,67.32v4.06h-1.3v-11.07h3.04c1.18,0,2.1.29,2.75.88s.98,1.42.98,2.48-.36,1.94-1.08,2.62-1.7,1.02-2.93,1.02h-1.46,0ZM230.35,61.48v4.66h1.36c.9,0,1.58-.21,2.05-.63s.71-1.01.71-1.78-.22-1.31-.65-1.69c-.43-.37-1.08-.56-1.95-.56h-1.52Z"/>
    <path class="cls-l" d="M241.63,64.66c-.12-.06-.26-.1-.4-.14s-.3-.05-.48-.05c-.57,0-1.03.27-1.38.81s-.53,1.23-.53,2.07v4.03h-1.27v-7.9h1.27v1.44h.03c.18-.49.46-.88.83-1.16.37-.28.79-.42,1.24-.42.21,0,.4.02.57.05.17.03.36.1.58.2l-.47,1.07h0Z"/>
    <path class="cls-l" d="M246.71,71.56c-1.23,0-2.19-.37-2.89-1.1s-1.04-1.71-1.04-2.95.39-2.29,1.16-3.07,1.74-1.16,2.89-1.16,2.12.38,2.81,1.13,1.04,1.75,1.04,2.98-.36,2.18-1.07,2.98-1.68,1.19-2.91,1.19h.01ZM246.78,70.47c.8,0,1.43-.27,1.9-.8.47-.53.71-1.27.71-2.23s-.24-1.64-.71-2.2-1.11-.85-1.9-.85-1.45.28-1.95.85-.75,1.31-.75,2.23.25,1.7.75,2.22c.5.52,1.15.78,1.95.78Z"/>
    <path class="cls-l" d="M259.42,71.09c0,1.31-.33,2.31-.99,2.99s-1.57,1.02-2.72,1.02c-.75,0-1.44-.14-2.05-.42s-1.14-.69-1.57-1.25l1-.76c.34.46.72.8,1.15,1.02.43.21.92.32,1.49.32.78,0,1.38-.22,1.8-.66.42-.44.63-1.11.63-2.02v-1.16h-.03c-.29.45-.64.8-1.05,1.03-.41.24-.94.36-1.6.36-1.1,0-1.95-.35-2.55-1.06-.6-.7-.91-1.67-.91-2.89,0-1.33.34-2.39,1.02-3.16.68-.78,1.58-1.16,2.69-1.16.53,0,1,.1,1.41.29.41.2.74.46.99.8h.03v-.91h1.27v7.62h0ZM258.15,67.8v-1.17c0-.63-.22-1.16-.66-1.6-.44-.44-1-.66-1.68-.66-.77,0-1.38.27-1.83.81s-.68,1.33-.68,2.35c0,.9.21,1.61.63,2.13s.98.78,1.69.78c.78,0,1.4-.25,1.85-.76.45-.5.67-1.14.67-1.91v.03Z"/>
    <path class="cls-l" d="M268.3,67.65h-5.7c0,.98.23,1.69.7,2.14s1.02.67,1.66.67c.48,0,.91-.11,1.28-.34.37-.22.67-.56.92-1l1.03.52c-.28.57-.7,1.03-1.25,1.38-.56.35-1.24.53-2.06.53-1.05,0-1.91-.35-2.58-1.04-.67-.69-1.01-1.72-1.01-3.06,0-1.2.34-2.19,1.02-2.98s1.55-1.19,2.61-1.19,1.91.33,2.5.98c.59.65.89,1.56.89,2.72v.66h-.01ZM267.01,66.59c0-.68-.19-1.22-.56-1.62s-.89-.59-1.55-.59-1.16.21-1.56.63-.65.95-.72,1.57h4.4-.01Z"/>
    <path class="cls-l" d="M274.17,70.88c-.23.23-.49.4-.76.51s-.6.16-.98.16c-.62,0-1.1-.17-1.44-.52s-.51-.85-.51-1.49v-4.98h-1.36v-1.08h1.36v-1.87l1.27-.22v2.09h2.12v1.08h-2.12v4.87c0,.38.07.65.22.82s.37.25.68.25c.15,0,.3-.03.44-.09s.29-.18.44-.36l.65.83h0Z"/>
    <path class="cls-l" d="M279.81,70.88c-.23.23-.49.4-.76.51s-.6.16-.98.16c-.62,0-1.1-.17-1.44-.52s-.51-.85-.51-1.49v-4.98h-1.36v-1.08h1.36v-1.87l1.27-.22v2.09h2.12v1.08h-2.12v4.87c0,.38.07.65.22.82s.37.25.68.25c.15,0,.3-.03.44-.09s.29-.18.44-.36l.65.83h0Z"/>
    <path class="cls-l" d="M282.02,61.69c-.27,0-.49-.09-.66-.27s-.25-.4-.25-.65.08-.46.25-.64.39-.27.66-.27.49.09.66.27.25.4.25.64-.08.46-.25.65c-.17.18-.39.27-.66.27ZM282.64,71.38h-1.27v-7.9h1.27v7.9Z"/>
    <path class="cls-l" d="M297.88,68.95c-.36.76-.91,1.38-1.64,1.87-.73.49-1.67.74-2.8.74-1.57,0-2.84-.51-3.81-1.52-.97-1.02-1.46-2.35-1.46-3.99,0-1.77.5-3.2,1.49-4.29s2.27-1.64,3.83-1.64c1,0,1.87.23,2.61.69s1.29,1.11,1.64,1.95l-1.11.48c-.32-.62-.74-1.1-1.27-1.42-.52-.33-1.15-.49-1.88-.49-1.15,0-2.1.43-2.84,1.28s-1.12,1.98-1.12,3.37c0,1.31.36,2.37,1.09,3.18.72.8,1.68,1.21,2.86,1.21.81,0,1.48-.18,2.01-.53s.95-.83,1.26-1.43l1.13.56v-.02Z"/>
    <path class="cls-l" d="M303.2,71.56c-1.23,0-2.19-.37-2.89-1.1s-1.04-1.71-1.04-2.95.39-2.29,1.16-3.07,1.74-1.16,2.89-1.16,2.12.38,2.81,1.13,1.04,1.75,1.04,2.98-.36,2.18-1.07,2.98c-.71.8-1.68,1.19-2.91,1.19h.01ZM303.27,70.47c.8,0,1.43-.27,1.9-.8.47-.53.71-1.27.71-2.23s-.24-1.64-.71-2.2-1.11-.85-1.9-.85-1.45.28-1.95.85-.75,1.31-.75,2.23.25,1.7.75,2.22c.5.52,1.15.78,1.95.78Z"/>
    <path class="cls-l" d="M309.05,71.38v-11.7h1.27v11.7h-1.27Z"/>
    <path class="cls-l" d="M312.72,71.38v-11.7h1.27v11.7h-1.27Z"/>
    <path class="cls-l" d="M321.99,71.38h-1.27v-1.05h-.03c-.27.4-.61.7-1.02.92-.41.21-.86.32-1.35.32-.79,0-1.4-.21-1.85-.63s-.67-.95-.67-1.58c0-.74.23-1.32.69-1.72s1.11-.66,1.95-.76l2.28-.26v-.5c0-.57-.15-1-.44-1.28-.3-.29-.7-.43-1.22-.43-.49,0-.89.11-1.21.33-.32.22-.56.52-.73.91l-1.1-.46c.26-.6.66-1.06,1.19-1.39.54-.33,1.18-.49,1.93-.49.92,0,1.63.25,2.12.74.49.49.74,1.18.74,2.06v5.29-.02ZM320.72,68.17v-.54l-2.19.25c-.49.06-.85.2-1.08.42s-.35.52-.35.89c0,.41.13.73.4.98.27.24.62.37,1.05.37.65,0,1.17-.22,1.57-.67s.6-1.01.6-1.69h0Z"/>
    <path class="cls-l" d="M325.52,70.42h-.03v.96h-1.27v-11.7h1.27v5h.03c.29-.43.67-.77,1.13-1.02s.98-.37,1.56-.37c1.07,0,1.91.35,2.51,1.06s.9,1.68.9,2.91c0,1.3-.32,2.34-.95,3.13-.63.78-1.52,1.17-2.66,1.17-.55,0-1.04-.1-1.46-.3-.42-.2-.77-.48-1.03-.85h0ZM325.49,67.05v1.1c0,.64.22,1.19.66,1.64s1.01.67,1.72.67c.79,0,1.39-.28,1.82-.84s.64-1.33.64-2.31-.2-1.67-.61-2.17c-.4-.51-.95-.76-1.65-.76-.78,0-1.4.25-1.87.76s-.71,1.14-.71,1.9h0Z"/>
    <path class="cls-l" d="M336.87,71.56c-1.23,0-2.19-.37-2.89-1.1s-1.04-1.71-1.04-2.95.39-2.29,1.16-3.07,1.74-1.16,2.89-1.16,2.12.38,2.81,1.13,1.04,1.75,1.04,2.98-.36,2.18-1.07,2.98c-.71.8-1.68,1.19-2.91,1.19h.01ZM336.94,70.47c.8,0,1.43-.27,1.9-.8.47-.53.71-1.27.71-2.23s-.24-1.64-.71-2.2-1.11-.85-1.9-.85-1.45.28-1.95.85-.75,1.31-.75,2.23.25,1.7.75,2.22c.5.52,1.15.78,1.95.78Z"/>
    <path class="cls-l" d="M346.76,64.66c-.12-.06-.26-.1-.4-.14-.14-.04-.3-.05-.48-.05-.57,0-1.03.27-1.38.81s-.53,1.23-.53,2.07v4.03h-1.27v-7.9h1.27v1.44h.03c.18-.49.46-.88.83-1.16.37-.28.79-.42,1.24-.42.21,0,.4.02.57.05s.36.1.58.2l-.47,1.07h.01Z"/>
    <path class="cls-l" d="M354.05,71.38h-1.27v-1.05h-.03c-.27.4-.61.7-1.02.92-.41.21-.86.32-1.35.32-.79,0-1.4-.21-1.85-.63s-.67-.95-.67-1.58c0-.74.23-1.32.69-1.72s1.11-.66,1.95-.76l2.28-.26v-.5c0-.57-.15-1-.44-1.28-.3-.29-.7-.43-1.22-.43-.49,0-.89.11-1.21.33-.32.22-.56.52-.73.91l-1.1-.46c.26-.6.66-1.06,1.19-1.39.54-.33,1.18-.49,1.93-.49.92,0,1.63.25,2.12.74.49.49.74,1.18.74,2.06v5.29-.02ZM352.78,68.17v-.54l-2.19.25c-.49.06-.85.2-1.08.42s-.35.52-.35.89c0,.41.13.73.4.98.27.24.62.37,1.05.37.65,0,1.17-.22,1.57-.67s.6-1.01.6-1.69h0Z"/>
    <path class="cls-l" d="M360.39,70.88c-.23.23-.49.4-.76.51s-.6.16-.98.16c-.62,0-1.1-.17-1.44-.52s-.51-.85-.51-1.49v-4.98h-1.36v-1.08h1.36v-1.87l1.27-.22v2.09h2.12v1.08h-2.12v4.87c0,.38.07.65.22.82s.37.25.68.25c.15,0,.3-.03.44-.09s.29-.18.44-.36l.65.83h0Z"/>
    <path class="cls-l" d="M362.59,61.69c-.27,0-.49-.09-.66-.27s-.25-.4-.25-.65.08-.46.25-.64.39-.27.66-.27.49.09.66.27.25.4.25.64-.08.46-.25.65c-.17.18-.39.27-.66.27ZM363.21,71.38h-1.27v-7.9h1.27v7.9Z"/>
    <path class="cls-l" d="M371.9,63.47l-3.15,7.9h-1.24l-3-7.9h1.39l2.01,5.65c.06.17.1.3.13.4s.08.23.13.4h.03c.05-.17.09-.31.13-.41.04-.1.08-.22.13-.36l2.1-5.68h1.34,0Z"/>
    <path class="cls-l" d="M373.9,61.69c-.27,0-.49-.09-.66-.27s-.25-.4-.25-.65.08-.46.25-.64.39-.27.66-.27.49.09.66.27.25.4.25.64-.08.46-.25.65c-.17.18-.39.27-.66.27ZM374.52,71.38h-1.27v-7.9h1.27v7.9Z"/>
  </g>
  <g id="sleep">
    <path class="cls-v" d="M40.48,20.67h.51c0,.35-.51.63-1.13.63s-1.13-.28-1.13-.63h.5c0,.09.28.16.63.16s.62-.07.62-.16Z"/>
    <path class="cls-v" d="M28.48,20.67h.51c0,.35-.51.63-1.13.63s-1.13-.28-1.13-.63h.5c0,.09.28.16.63.16s.62-.07.62-.16Z"/>
  </g>
  <g id="_25" data-name="25">
    <path id="rd" class="cls-b" d="M40.48,20.67h.51c0,.35-.51.63-1.13.63s-1.13-.28-1.13-.63h.5c0,.09.28.16.63.16s.62-.07.62-.16Z"/>
    <path id="ld" class="cls-b" d="M28.48,20.67h.51c0,.35-.51.63-1.13.63s-1.13-.28-1.13-.63h.5c0,.09.28.16.63.16s.62-.07.62-.16Z"/>
    <path id="ru" class="cls-v" d="M39.85,20.05c-.62,0-1.13.28-1.13.62h.5c0,.09.28.16.63.16s.62-.07.62-.16h.51c0-.34-.51-.62-1.13-.62Z"/>
    <path id="lu" class="cls-v" d="M27.85,20.05c-.62,0-1.13.28-1.13.62h.5c0,.09.28.16.63.16s.62-.07.62-.16h.51c0-.34-.51-.62-1.13-.62Z"/>
  </g>
  <g id="_50" data-name="50">
    <path id="ru-2" data-name="ru" class="cls-v" d="M40.99,20.67h-.51c0-.22-.27-.4-.62-.4s-.63.18-.63.4h-.5c0-.87.51-1.57,1.13-1.57s1.13.71,1.13,1.57Z"/>
    <path id="rd-2" data-name="rd" class="cls-b" d="M40.48,20.67h.51c0,.87-.51,1.58-1.13,1.58s-1.13-.71-1.13-1.58h.5c0,.23.28.41.63.41s.62-.18.62-.41Z"/>
    <path id="rc" class="cls-w" d="M39.86,20.27c.35,0,.62.18.62.4s-.27.41-.62.41-.63-.18-.63-.41.28-.4.63-.4Z"/>
    <path id="lu-2" data-name="lu" class="cls-v" d="M28.99,20.67h-.51c0-.22-.27-.4-.62-.4s-.63.18-.63.4h-.5c0-.87.51-1.57,1.13-1.57s1.13.71,1.13,1.57Z"/>
    <path id="ld-2" data-name="ld" class="cls-b" d="M28.48,20.67h.51c0,.87-.51,1.58-1.13,1.58s-1.13-.71-1.13-1.58h.5c0,.23.28.41.63.41s.62-.18.62-.41Z"/>
    <path id="lc" class="cls-w" d="M27.86,20.27c.35,0,.62.18.62.4s-.27.41-.62.41-.63-.18-.63-.41.28-.4.63-.4Z"/>
  </g>
  <g id="_75" data-name="75">
    <path id="ru-3" data-name="ru" class="cls-v" d="M40.99,20.67h-.51c0-.28-.27-.51-.62-.51s-.63.23-.63.51h-.5c0-1.1.51-1.99,1.13-1.99s1.13.89,1.13,1.99Z"/>
    <path id="rd-3" data-name="rd" class="cls-b" d="M40.48,20.67h.51c0,1.1-.51,1.99-1.13,1.99s-1.13-.89-1.13-1.99h.5c0,.29.28.52.63.52s.62-.23.62-.52Z"/>
    <path id="rc-2" data-name="rc" class="cls-w" d="M39.86,20.16c.35,0,.62.23.62.51s-.27.52-.62.52-.63-.23-.63-.52.28-.51.63-.51Z"/>
    <path id="lu-3" data-name="lu" class="cls-v" d="M28.99,20.67h-.51c0-.28-.27-.51-.62-.51s-.63.23-.63.51h-.5c0-1.1.51-1.99,1.13-1.99s1.13.89,1.13,1.99Z"/>
    <path id="ld-3" data-name="ld" class="cls-b" d="M28.48,20.67h.51c0,1.1-.51,1.99-1.13,1.99s-1.13-.89-1.13-1.99h.5c0,.29.28.52.63.52s.62-.23.62-.52Z"/>
    <path id="lc-2" data-name="lc" class="cls-w" d="M27.86,20.16c.35,0,.62.23.62.51s-.27.52-.62.52-.63-.23-.63-.52.28-.51.63-.51Z"/>
  </g>
  <g id="static">
    <path id="ru-4" data-name="ru" class="cls-v" d="M40.99,20.67h-.51c0-.34-.27-.62-.62-.62s-.63.28-.63.62h-.5c0-1.34.51-2.43,1.13-2.43s1.13,1.09,1.13,2.43Z"/>
    <path id="rd-4" data-name="rd" class="cls-b" d="M40.48,20.67h.51c0,1.35-.51,2.44-1.13,2.44s-1.13-1.09-1.13-2.44h.5c0,.35.28.63.63.63s.62-.28.62-.63Z"/>
    <path id="rc-3" data-name="rc" class="cls-w" d="M39.86,20.05c.35,0,.62.28.62.62s-.27.63-.62.63-.63-.28-.63-.63.28-.62.63-.62Z"/>
    <path id="lu-4" data-name="lu" class="cls-v" d="M28.99,20.67h-.51c0-.34-.27-.62-.62-.62s-.63.28-.63.62h-.5c0-1.34.51-2.43,1.13-2.43s1.13,1.09,1.13,2.43Z"/>
    <path id="ld-4" data-name="ld" class="cls-b" d="M28.48,20.67h.51c0,1.35-.51,2.44-1.13,2.44s-1.13-1.09-1.13-2.44h.5c0,.35.28.63.63.63s.62-.28.62-.63Z"/>
    <path id="lc-3" data-name="lc" class="cls-w" d="M27.86,20.05c.35,0,.62.28.62.62s-.27.63-.62.63-.63-.28-.63-.63.28-.62.63-.62Z"/>
  </g>
  <g id="sx">
    <path id="rd-5" data-name="rd" class="cls-b" d="M40.97,20.25c.01.14.02.28.02.42,0,1.35-.51,2.44-1.13,2.44s-1.13-1.09-1.13-2.44c0-.14.01-.28.02-.42h.2c0,.35.28.63.62.63s.63-.28.63-.63h.77Z"/>
    <path id="ru-5" data-name="ru" class="cls-v" d="M40.97,20.25h-.77c0-.34-.28-.62-.63-.62s-.62.28-.62.62h-.2c.09-1.14.56-2.01,1.11-2.01s1.02.87,1.11,2.01Z"/>
    <path id="rc-4" data-name="rc" class="cls-w" d="M39.57,19.63c-.34,0-.62.28-.62.62s.28.63.62.63.63-.28.63-.63-.28-.62-.63-.62Z"/>
    <path id="ld-5" data-name="ld" class="cls-b" d="M28.97,20.25c0,.14.02.28.02.42,0,1.35-.51,2.44-1.13,2.44s-1.13-1.09-1.13-2.44c0-.14.01-.28.02-.42h.23c0,.35.28.63.62.63s.63-.28.63-.63h.74Z"/>
    <path id="lu-5" data-name="lu" class="cls-v" d="M28.97,20.25h-.74c0-.34-.28-.62-.63-.62s-.62.28-.62.62h-.23c.09-1.14.56-2.01,1.11-2.01s1.02.87,1.11,2.01Z"/>
    <path id="lc-4" data-name="lc" class="cls-w" d="M27.6,19.63c-.34,0-.62.28-.62.62s.28.63.62.63.63-.28.63-.63-.28-.62-.63-.62Z"/>
  </g>
  <g id="dx">
    <path id="rd-6" data-name="rd" class="cls-b" d="M38.73,20.67c0-.27.02-.54.06-.78h.7c0,.34.28.62.63.62s.62-.28.62-.62h.19c.04.24.06.51.06.78,0,1.35-.51,2.44-1.13,2.44s-1.13-1.09-1.13-2.44Z"/>
    <path id="ru-6" data-name="ru" class="cls-v" d="M39.86,18.24c.49,0,.92.69,1.07,1.65h-.19c0-.35-.28-.63-.62-.63s-.63.28-.63.63h-.7c.15-.96.58-1.65,1.07-1.65Z"/>
    <path id="rc-5" data-name="rc" class="cls-w" d="M40.11,19.26c-.35,0-.63.28-.63.63s.28.62.63.62.62-.28.62-.62-.28-.63-.62-.63Z"/>
    <path id="ld-6" data-name="ld" class="cls-b" d="M28.99,20.67c0,1.35-.51,2.44-1.13,2.44s-1.13-1.09-1.13-2.44c0-.27.02-.54.06-.78h.68c0,.34.28.62.63.62s.62-.28.62-.62h.21c.04.24.06.51.06.78Z"/>
    <path id="lu-6" data-name="lu" class="cls-v" d="M26.79,19.89c.15-.96.58-1.65,1.07-1.65s.92.69,1.07,1.65h-.21c0-.35-.28-.63-.62-.63s-.63.28-.63.63h-.68Z"/>
    <path id="lc-5" data-name="lc" class="cls-w" d="M28.1,19.26c-.35,0-.63.28-.63.63s.28.62.63.62.62-.28.62-.62-.28-.63-.62-.63Z"/>
  </g>
</svg>